/* XPM */
static char * bottom_active_xpm[] = {
"20 3 6 1",
" 	c None",
".	c #000000",
"+	c #141D26",
"@	c #1C2935",
"#	c #243545",
"$	c #1C2936",
"....................",
"+@#######$++++++++++",
"@#######$+++++++++++"};
