/* XPM */
static char * close_pressed_xpm[] = {
"23 25 28 1",
" 	c None",
".	c #101010",
"+	c #222222",
"@	c #232323",
"#	c #0A0A0A",
"$	c #1E1E1E",
"%	c #1F1F1F",
"&	c #202020",
"*	c #212121",
"=	c #2B2B2B",
"-	c #2C2C2C",
";	c #A2A2A2",
">	c #3F3F3F",
",	c #3A3A3A",
"'	c #333333",
")	c #1D1D1D",
"!	c #404040",
"~	c #A1A1A1",
"{	c #3E3E3E",
"]	c #393939",
"^	c #474747",
"/	c #A4A4A4",
"(	c #A5A5A5",
"_	c #2D2D2D",
":	c #323232",
"<	c #0E0E0E",
"[	c #090909",
"}	c #2F2F2F",
".+++++++++++++++++@    ",
"#$%%%%%%%%%%%%%%%%&**  ",
"#$%%%%%%%%%%%%%%%%%%&* ",
"#$%%%%%%%%%%%%%%%%%%%* ",
"#$%%%%%%%%%%%%%%%%%%%&&",
"#$%%%%%%%=%%%%=%%%%%%%%",
"#$%%%%%%-;>%%,;'%%%%%%%",
"#)$$$$$$$!~{]~^$$$$$$$$",
"#)$$$$$$$$!//^$$$$$$$$$",
"#)$$$$$$$$]((!$$$$$$$$$",
"#)$$$$$$$]~^!~!$$$$$$$$",
"#)$$$$$$_~^$$!~:$$$$$$$",
"#)$$$$$$$:$$$$:$$$$$$$$",
"#)$$$$$$$$$$$$$$$$$$$$$",
"#)$$$$$$$$$$$$$$$$$$$$$",
"#)$$$$$$$$$$$$$$$$$$$$$",
"#)$$$$$$$$$$$$$$$$$$$$$",
"<))))))))))))))))))))))",
"[[[[[[[[[[[[[[[[[[[[[[[",
"}}}}}}}}}}}}}}}}}}}}}}}",
"***********************",
"***********************",
"***********************",
"***********************",
"***********************"};
