/* XPM */
static char * close_prelight_xpm[] = {
"23 25 31 1",
" 	c None",
".	c #101010",
"+	c #393939",
"@	c #373737",
"#	c #0A0A0A",
"$	c #323232",
"%	c #232323",
"&	c #262626",
"*	c #2A2A2A",
"=	c #343434",
"-	c #2F2F2F",
";	c #282828",
">	c #2E2E2E",
",	c #252525",
"'	c #303030",
")	c #A1A1A1",
"!	c #424242",
"~	c #3D3D3D",
"{	c #363636",
"]	c #222222",
"^	c #434343",
"/	c #414141",
"(	c #3C3C3C",
"_	c #494949",
":	c #A4A4A4",
"<	c #A5A5A5",
"[	c #353535",
"}	c #0E0E0E",
"|	c #313131",
"1	c #090909",
"2	c #212121",
".+++++++++++++++++@    ",
"#$%%%%%%%%%%%%%%%%&*=  ",
"#$%%%%%%%%%%%%%%%%%%&- ",
"#$%%%%%%%%%%%%%%%%%%%& ",
"#$%%%%%%%%%%%%%%%%%%%%;",
"#$%%%%%%%>%%%%>%%%%%%%,",
"#$%%%%%%')!%%~){%%%%%%%",
"#$]]]]]]]^)/()_]]]]]]]]",
"#$]]]]]]]]^::_]]]]]]]]]",
"#$]]]]]]]](<<^]]]]]]]]]",
"#$]]]]]]]()_^)^]]]]]]]]",
"#$]]]]]]')_]]^)[]]]]]]]",
"#$]]]]]]][]]]][]]]]]]]]",
"#$]]]]]]]]]]]]]]]]]]]]]",
"#$]]]]]]]]]]]]]]]]]]]]]",
"#$]]]]]]]]]]]]]]]]]]]]]",
"#$]]]]]]]]]]]]]]]]]]]]]",
"}||||||||||||||||||||||",
"11111111111111111111111",
"-----------------------",
"22222222222222222222222",
"22222222222222222222222",
"22222222222222222222222",
"22222222222222222222222",
"22222222222222222222222"};
