/* XPM */
static char * close_active_xpm[] = {
"23 25 18 1",
" 	c None",
".	c #101010",
"+	c #393939",
"@	c #373737",
"#	c #0A0A0A",
"$	c #323232",
"%	c #232323",
"&	c #262626",
"*	c #2A2A2A",
"=	c #343434",
"-	c #2F2F2F",
";	c #282828",
">	c #252525",
",	c #222222",
"'	c #0E0E0E",
")	c #313131",
"!	c #090909",
"~	c #212121",
".+++++++++++++++++@    ",
"#$%%%%%%%%%%%%%%%%&*=  ",
"#$%%%%%%%%%%%%%%%%%%&- ",
"#$%%%%%%%%%%%%%%%%%%%& ",
"#$%%%%%%%%%%%%%%%%%%%%;",
"#$%%%%%%%%%%%%%%%%%%%%>",
"#$%%%%%%%%%%%%%%%%%%%%%",
"#$,,,,,,,,,,,,,,,,,,,,,",
"#$,,,,,,,,,,,,,,,,,,,,,",
"#$,,,,,,,,,,,,,,,,,,,,,",
"#$,,,,,,,,,,,,,,,,,,,,,",
"#$,,,,,,,,,,,,,,,,,,,,,",
"#$,,,,,,,,,,,,,,,,,,,,,",
"#$,,,,,,,,,,,,,,,,,,,,,",
"#$,,,,,,,,,,,,,,,,,,,,,",
"#$,,,,,,,,,,,,,,,,,,,,,",
"#$,,,,,,,,,,,,,,,,,,,,,",
"'))))))))))))))))))))))",
"!!!!!!!!!!!!!!!!!!!!!!!",
"-----------------------",
"~~~~~~~~~~~~~~~~~~~~~~~",
"~~~~~~~~~~~~~~~~~~~~~~~",
"~~~~~~~~~~~~~~~~~~~~~~~",
"~~~~~~~~~~~~~~~~~~~~~~~",
"~~~~~~~~~~~~~~~~~~~~~~~"};
