/* XPM */
static char * hide_inactive_xpm[] = {
"25 25 29 1",
" 	c None",
".	c #393939",
"+	c #101010",
"@	c #313131",
"#	c #0A0A0A",
"$	c #333333",
"%	c #232323",
"&	c #303030",
"*	c #323232",
"=	c #222222",
"-	c #2F2F2F",
";	c #2E2E2E",
">	c #0D0D0D",
",	c #2B2B2B",
"'	c #171717",
")	c #272727",
"!	c #242424",
"~	c #2D2D2D",
"{	c #212121",
"]	c #252525",
"^	c #282828",
"/	c #2C2C2C",
"(	c #202020",
"_	c #2A2A2A",
":	c #1A1A1A",
"<	c #0F0F0F",
"[	c #090909",
"}	c #262626",
"|	c #292929",
".+.......................",
"@#$%%%%%%%%%%%%%%%%%%%%%@",
"@#$%%%%%%%%%%%%%%%%%%%%%@",
"@#$%%%%%%%%%%%%%%%%%%%%%@",
"@#$%%%%%%%%%%%%%%%%%%%%%@",
"@#$%%%%%%%%%%%%%%%%%%%%%@",
"@#$%%%%%%%%%%%%%%%%%%%%%@",
"&#*=====================&",
"&#*=====================&",
"&#*=====================&",
"&#*=====================&",
"&#*=====================&",
"-#$=====================&",
";>*%====================&",
",'@)====================&",
"))'@!===================&",
"%~{]@^%=================&",
"{]/('~@*@@@@@@@@@@@@@@@@@",
"{{]/_:<[[[[[[[[[[[[[[[[[[",
"{{{=}|~;-----------------",
"{{{{{{{{{{{{{{{{{{{{{{{{{",
"{{{{{{{{{{{{{{{{{{{{{{{{{",
"{{{{{{{{{{{{{{{{{{{{{{{{{",
"{{{{{{{{{{{{{{{{{{{{{{{{{",
"{{{{{{{{{{{{{{{{{{{{{{{{{"};
