/* XPM */
static char * hide_pressed_xpm[] = {
"25 25 43 1",
" 	c None",
".	c #393939",
"+	c #101010",
"@	c #222222",
"#	c #313131",
"$	c #0A0A0A",
"%	c #1E1E1E",
"&	c #1F1F1F",
"*	c #1D1D1D",
"=	c #373737",
"-	c #303030",
";	c #2D2D2D",
">	c #A1A1A1",
",	c #4D4D4D",
"'	c #424242",
")	c #A5A5A5",
"!	c #363636",
"~	c #444444",
"{	c #A3A3A3",
"]	c #676767",
"^	c #434343",
"/	c #AEAEAE",
"(	c #545454",
"_	c #353535",
":	c #2F2F2F",
"<	c #2E2E2E",
"[	c #0D0D0D",
"}	c #2B2B2B",
"|	c #171717",
"1	c #272727",
"2	c #151515",
"3	c #232323",
"4	c #212121",
"5	c #202020",
"6	c #252525",
"7	c #2C2C2C",
"8	c #141414",
"9	c #2A2A2A",
"0	c #1A1A1A",
"a	c #0F0F0F",
"b	c #090909",
"c	c #262626",
"d	c #292929",
".+@@@@@@@@@@@@@@@@@@@@@@@",
"#$%&&&&&&&&&&&&&&&&&&&&&*",
"#$%&&&&&&&&&&&&&&&&&&&&&*",
"#$%&&&&&&&&&&&&&&&&&&&&&*",
"#$%&&&&&&&&&&&&&&&&&&&&&*",
"#$%&&&&&&&&&&&&&&&&&&&&&*",
"#$%&&&&&&&=&&&&&=&&&&&&&*",
"-$%%%%%%%;>,%%%')!%%%%%%*",
"-$%%%%%%%%.>,%~)'%%%%%%%*",
"-$%%%%%%%%%.{])'%%%%%%%%*",
"-$%%%%%%%%%%^/(%%%%%%%%%*",
"-$%%%%%%%%%%%_%%%%%%%%%%*",
":$%%%%%%%%%%%%%%%%%%%%%%*",
"<[&&%%%%%%%%%%%%%%%%%%%%*",
"}|@&%%%%%%%%%%%%%%%%%%%%*",
"112*&%%%%%%%%%%%%%%%%%%%*",
"3;4%45&%%%%%%%%%%%%%%%%%*",
"4675845%*****************",
"446790abbbbbbbbbbbbbbbbbb",
"444@cd;<:::::::::::::::::",
"4444444444444444444444444",
"4444444444444444444444444",
"4444444444444444444444444",
"4444444444444444444444444",
"4444444444444444444444444"};
