/* XPM */
static char * hide_prelight_xpm[] = {
"25 25 42 1",
" 	c None",
".	c #393939",
"+	c #101010",
"@	c #313131",
"#	c #0A0A0A",
"$	c #333333",
"%	c #232323",
"&	c #3A3A3A",
"*	c #303030",
"=	c #323232",
"-	c #222222",
";	c #A1A1A1",
">	c #505050",
",	c #444444",
"'	c #A5A5A5",
")	c #3C3C3C",
"!	c #464646",
"~	c #A3A3A3",
"{	c #686868",
"]	c #454545",
"^	c #AEAEAE",
"/	c #565656",
"(	c #383838",
"_	c #2F2F2F",
":	c #2E2E2E",
"<	c #0D0D0D",
"[	c #2B2B2B",
"}	c #171717",
"|	c #272727",
"1	c #242424",
"2	c #2D2D2D",
"3	c #212121",
"4	c #252525",
"5	c #282828",
"6	c #2C2C2C",
"7	c #202020",
"8	c #2A2A2A",
"9	c #1A1A1A",
"0	c #0F0F0F",
"a	c #090909",
"b	c #262626",
"c	c #292929",
".+.......................",
"@#$%%%%%%%%%%%%%%%%%%%%%@",
"@#$%%%%%%%%%%%%%%%%%%%%%@",
"@#$%%%%%%%%%%%%%%%%%%%%%@",
"@#$%%%%%%%%%%%%%%%%%%%%%@",
"@#$%%%%%%%%%%%%%%%%%%%%%@",
"@#$%%%%%%%&%%%%%&%%%%%%%@",
"*#=------*;>---,'.------*",
"*#=-------);>-!',-------*",
"*#=--------)~{',--------*",
"*#=---------]^/---------*",
"*#=----------(----------*",
"_#$---------------------*",
":<=%--------------------*",
"[}@|--------------------*",
"||}@1-------------------*",
"%234@5%-----------------*",
"3467}2@=@@@@@@@@@@@@@@@@@",
"3346890aaaaaaaaaaaaaaaaaa",
"333-bc2:_________________",
"3333333333333333333333333",
"3333333333333333333333333",
"3333333333333333333333333",
"3333333333333333333333333",
"3333333333333333333333333"};
