/* XPM */
static char * maximize_prelight_xpm[] = {
"24 25 25 1",
" 	c None",
".	c #101010",
"+	c #393939",
"@	c #0A0A0A",
"#	c #323232",
"$	c #232323",
"%	c #313131",
"&	c #383838",
"*	c #222222",
"=	c #454545",
"-	c #AEAEAE",
";	c #565656",
">	c #303030",
",	c #3C3C3C",
"'	c #A3A3A3",
")	c #686868",
"!	c #A5A5A5",
"~	c #444444",
"{	c #A1A1A1",
"]	c #505050",
"^	c #464646",
"/	c #0E0E0E",
"(	c #090909",
"_	c #2F2F2F",
":	c #212121",
".+++++++++++++++++++++++",
"@#$$$$$$$$$$$$$$$$$$$$$%",
"@#$$$$$$$$$$$$$$$$$$$$$%",
"@#$$$$$$$$$$$$$$$$$$$$$%",
"@#$$$$$$$$$$$$$$$$$$$$$%",
"@#$$$$$$$$$$$$$$$$$$$$$%",
"@#$$$$$$$$$$&$$$$$$$$$$%",
"@#*********=-;*********>",
"@#********,')!~********>",
"@#*******,{]*^!~*******>",
"@#******>{]***~!+******>",
"@#*******+*****+*******>",
"@#*********************>",
"@#*********************>",
"@#*********************>",
"@#*********************>",
"@#*********************>",
"/%%%%%%%%%%%%%%%%%%%%%%%",
"((((((((((((((((((((((((",
"________________________",
"::::::::::::::::::::::::",
"::::::::::::::::::::::::",
"::::::::::::::::::::::::",
"::::::::::::::::::::::::",
"::::::::::::::::::::::::"};
