/* XPM */
static char * maximize_inactive_xpm[] = {
"24 25 13 1",
" 	c None",
".	c #101010",
"+	c #393939",
"@	c #0A0A0A",
"#	c #323232",
"$	c #232323",
"%	c #313131",
"&	c #222222",
"*	c #303030",
"=	c #0E0E0E",
"-	c #090909",
";	c #2F2F2F",
">	c #212121",
".+++++++++++++++++++++++",
"@#$$$$$$$$$$$$$$$$$$$$$%",
"@#$$$$$$$$$$$$$$$$$$$$$%",
"@#$$$$$$$$$$$$$$$$$$$$$%",
"@#$$$$$$$$$$$$$$$$$$$$$%",
"@#$$$$$$$$$$$$$$$$$$$$$%",
"@#$$$$$$$$$$$$$$$$$$$$$%",
"@#&&&&&&&&&&&&&&&&&&&&&*",
"@#&&&&&&&&&&&&&&&&&&&&&*",
"@#&&&&&&&&&&&&&&&&&&&&&*",
"@#&&&&&&&&&&&&&&&&&&&&&*",
"@#&&&&&&&&&&&&&&&&&&&&&*",
"@#&&&&&&&&&&&&&&&&&&&&&*",
"@#&&&&&&&&&&&&&&&&&&&&&*",
"@#&&&&&&&&&&&&&&&&&&&&&*",
"@#&&&&&&&&&&&&&&&&&&&&&*",
"@#&&&&&&&&&&&&&&&&&&&&&*",
"=%%%%%%%%%%%%%%%%%%%%%%%",
"------------------------",
";;;;;;;;;;;;;;;;;;;;;;;;",
">>>>>>>>>>>>>>>>>>>>>>>>",
">>>>>>>>>>>>>>>>>>>>>>>>",
">>>>>>>>>>>>>>>>>>>>>>>>",
">>>>>>>>>>>>>>>>>>>>>>>>",
">>>>>>>>>>>>>>>>>>>>>>>>"};
