/* XPM */
static char * maximize_pressed_xpm[] = {
"24 25 25 1",
" 	c None",
".	c #101010",
"+	c #222222",
"@	c #0A0A0A",
"#	c #1E1E1E",
"$	c #1F1F1F",
"%	c #1D1D1D",
"&	c #353535",
"*	c #434343",
"=	c #AEAEAE",
"-	c #545454",
";	c #393939",
">	c #A3A3A3",
",	c #676767",
"'	c #A5A5A5",
")	c #424242",
"!	c #A1A1A1",
"~	c #4D4D4D",
"{	c #444444",
"]	c #2D2D2D",
"^	c #363636",
"/	c #0E0E0E",
"(	c #090909",
"_	c #2F2F2F",
":	c #212121",
".+++++++++++++++++++++++",
"@#$$$$$$$$$$$$$$$$$$$$$%",
"@#$$$$$$$$$$$$$$$$$$$$$%",
"@#$$$$$$$$$$$$$$$$$$$$$%",
"@#$$$$$$$$$$$$$$$$$$$$$%",
"@#$$$$$$$$$$$$$$$$$$$$$%",
"@#$$$$$$$$$$&$$$$$$$$$$%",
"@%#########*=-#########%",
"@%########;>,')########%",
"@%#######;!~#{')#######%",
"@%######]!~###)'^######%",
"@%#######^#####^#######%",
"@%#####################%",
"@%#####################%",
"@%#####################%",
"@%#####################%",
"@%#####################%",
"/%%%%%%%%%%%%%%%%%%%%%%%",
"((((((((((((((((((((((((",
"________________________",
"::::::::::::::::::::::::",
"::::::::::::::::::::::::",
"::::::::::::::::::::::::",
"::::::::::::::::::::::::",
"::::::::::::::::::::::::"};
