/* XPM */
static char * title_2_active_xpm[] = {
"5 25 5 1",
" 	c None",
".	c #393939",
"+	c #232323",
"@	c #222222",
"#	c #212121",
".....",
"+++++",
"+++++",
"+++++",
"+++++",
"+++++",
"+++++",
"@@@@@",
"@@@@@",
"@@@@@",
"@@@@@",
"@@@@@",
"@@@@@",
"@@@@@",
"@@@@@",
"@@@@@",
"@@@@@",
"#####",
"#####",
"#####",
"#####",
"#####",
"#####",
"#####",
"#####"};
