/* XPM */
static char * top_left_inactive_xpm[] = {
"5 25 11 1",
" 	c None",
".	c #373737",
"+	c #343434",
"@	c #2A2A2A",
"#	c #262626",
"$	c #2F2F2F",
"%	c #232323",
"&	c #282828",
"*	c #252525",
"=	c #222222",
"-	c #212121",
"    .",
"  +@#",
" $#%%",
" #%%%",
"&%%%%",
"*%%%%",
"%%%%%",
"=====",
"=====",
"=====",
"=====",
"=====",
"=====",
"=====",
"=====",
"=====",
"=====",
"-----",
"-----",
"-----",
"-----",
"-----",
"-----",
"-----",
"-----"};
