#define bullet_width 9
#define bullet_height 9
static unsigned char bullet_bits[] = {
   0x08, 0x00, 0x18, 0x00, 0x30, 0x00, 0x60, 0x00, 0xc0, 0x00, 0x60, 0x00,
   0x30, 0x00, 0x18, 0x00, 0x08, 0x00 };
